# xmcd
#
# Track frame offsets:
#	150
#	21092
#	36592
#	57890
#	82060
#	100867
#	122980
#	142522
#	160270
#	176165
#	196527
#	222887
#
# Disc length: 3225 seconds
#
# Revision: 0
# Processed by: cddbd v1.5.2PL0 Copyright (c) Steve Scherf et al.
# Submitted via: audiograbber 1.83.01
#
DISCID=a00c970c
DTITLE=R.E.M. - Reveal
DYEAR=2001
DGENRE=Rock
TTITLE0=The Lifting
TTITLE1=I've Been High
TTITLE2=All The Way To Reno (You're Gonna Be A Star)
TTITLE3=She Just Wants To Be
TTITLE4=Disappear
TTITLE5=Saturn Return
TTITLE6=Beat A Drum
TTITLE7=Imitation Of Life
TTITLE8=Summer Turns To High
TTITLE9=Chorus And The Ring
TTITLE10=I'll Take The Rain
TTITLE11=Beachball
EXTD=
EXTT0=
EXTT1=
EXTT2=
EXTT3=
EXTT4=
EXTT5=
EXTT6=
EXTT7=
EXTT8=
EXTT9=
EXTT10=
EXTT11=
PLAYORDER=
